<?xml version="1.0" encoding="UTF-8" standalone="no"?><!DOCTYPE svg PUBLIC "-//W3C//DTD SVG 1.1//EN" "http://www.w3.org/Graphics/SVG/1.1/DTD/svg11.dtd"><svg width="100%" height="100%" viewBox="0 0 1080 705" version="1.1" xmlns="http://www.w3.org/2000/svg" xmlns:xlink="http://www.w3.org/1999/xlink" xml:space="preserve" xmlns:serif="http://www.serif.com/" style="fill-rule:evenodd;clip-rule:evenodd;stroke-linejoin:round;stroke-miterlimit:2;"><rect id="Prancheta1" x="0.002" y="0.792" width="1080" height="703.256" style="fill:none;"/><g><g><g><path d="M461.793,549.464c-7.043,0 -12.484,-2.067 -16.322,-6.201c-3.838,-4.134 -5.757,-9.988 -5.757,-17.562c0,-7.553 1.955,-13.412 5.865,-17.577c3.909,-4.164 9.416,-6.247 16.52,-6.247c4.063,0 8.819,0.664 14.27,1.991l0,6.032c-6.206,-2.143 -10.993,-3.215 -14.362,-3.215c-4.92,-0 -8.727,1.664 -11.422,4.991c-2.695,3.328 -4.042,8.023 -4.042,14.087c0,5.777 1.439,10.334 4.318,13.672c2.878,3.338 6.808,5.007 11.789,5.007c4.287,0 8.881,-1.317 13.78,-3.95l0,5.512c-4.471,2.307 -9.35,3.46 -14.637,3.46Z" style="fill:#fff;fill-rule:nonzero;"/><path d="M552.636,530.999l-7.716,-19.537l-7.748,19.537l15.464,-0Zm6.798,17.332l-4.93,-12.555l-19.2,-0l-4.991,12.555l-5.971,0l17.975,-45.321l6.369,0l17.7,45.321l-6.952,0Z" style="fill:#fff;fill-rule:nonzero;"/><path d="M616.839,548.331l-0,-45.321l8.911,0l12.555,35.063l12.922,-35.063l7.962,0l-0,45.321l-6.002,0l0,-36.869l-12.494,33.837l-6.216,0l-12.126,-33.929l-0,36.961l-5.512,0Z" style="fill:#fff;fill-rule:nonzero;"/><path d="M737.722,530.999l-7.716,-19.537l-7.748,19.537l15.464,-0Zm6.798,17.332l-4.93,-12.555l-19.2,-0l-4.991,12.555l-5.971,0l17.975,-45.321l6.369,0l17.7,45.321l-6.952,0Z" style="fill:#fff;fill-rule:nonzero;"/><path d="M801.925,548.331l-0,-45.321l13.718,0c4.349,0 7.681,0.96 9.998,2.879c2.317,1.919 3.476,4.705 3.476,8.36c-0,6.042 -3.052,10.329 -9.156,12.861l15.127,21.221l-7.9,0l-12.892,-19.169l-6.002,-0l-0,19.169l-6.369,0Zm6.369,-23.977l2.082,-0c8.085,-0 12.127,-3.175 12.127,-9.524c-0,-4.675 -3.389,-7.012 -10.167,-7.012l-4.042,-0l-0,16.536Z" style="fill:#fff;fill-rule:nonzero;"/><path d="M908.447,530.999l-7.717,-19.537l-7.748,19.537l15.465,-0Zm6.798,17.332l-4.931,-12.555l-19.2,-0l-4.991,12.555l-5.971,0l17.975,-45.321l6.369,0l17.7,45.321l-6.951,0Zm-24.284,-49.118c0.102,-2.388 0.628,-4.18 1.577,-5.374c0.95,-1.194 2.312,-1.791 4.088,-1.791c1.491,-0 2.869,0.388 4.134,1.163l1.838,1.133c1.143,0.715 2.021,1.072 2.633,1.072c0.694,0 1.24,-0.281 1.639,-0.842c0.398,-0.561 0.637,-1.404 0.719,-2.526l3.767,-0c-0.123,2.388 -0.654,4.18 -1.593,5.374c-0.939,1.194 -2.296,1.791 -4.072,1.791c-1.491,0 -2.869,-0.398 -4.134,-1.194l-1.838,-1.133c-1.143,-0.694 -2.021,-1.041 -2.633,-1.041c-0.694,-0 -1.24,0.28 -1.639,0.842c-0.398,0.561 -0.637,1.403 -0.719,2.526l-3.767,0Z" style="fill:#fff;fill-rule:nonzero;"/><path d="M990.9,549.464c-6.288,0 -11.346,-2.179 -15.174,-6.538c-3.827,-4.358 -5.741,-10.12 -5.741,-17.286c-0,-7.206 1.924,-12.968 5.772,-17.286c3.848,-4.318 8.988,-6.477 15.418,-6.477c6.41,0 11.545,2.154 15.403,6.462c3.858,4.307 5.788,10.054 5.788,17.24c-0,7.329 -1.93,13.142 -5.788,17.439c-3.858,4.297 -9.084,6.446 -15.678,6.446Zm0.091,-4.808c4.635,0 8.217,-1.669 10.749,-5.006c2.531,-3.338 3.797,-8.049 3.797,-14.132c-0,-5.9 -1.271,-10.514 -3.813,-13.842c-2.541,-3.327 -6.058,-4.991 -10.549,-4.991c-4.512,-0 -8.033,1.669 -10.564,5.007c-2.532,3.337 -3.798,7.977 -3.798,13.917c0,5.921 1.256,10.575 3.767,13.964c2.511,3.389 5.981,5.083 10.411,5.083Z" style="fill:#fff;fill-rule:nonzero;"/></g><g><path d="M523.73,297.068l-52.55,170.907l-31.511,-0l-52.662,-170.907l34.179,0l34.236,119.834l34.127,-119.834l34.181,0Z" style="fill:#fff;fill-rule:nonzero;"/><path d="M626.274,296.949l34.182,0l-0,136.845l68.362,0l-0,34.182l-102.544,0l-0,-171.027Z" style="fill:#fff;fill-rule:nonzero;"/><path d="M763,296.949l34.182,0l-0,136.845l68.362,0l-0,34.182l-102.544,0l-0,-171.027Z" style="fill:#fff;fill-rule:nonzero;"/><path d="M968.143,347.878l-12.885,44.286l25.658,0l-12.773,-44.286Zm-21.83,75.867l-12.885,44.169l-33.702,0l52.553,-170.969l-0,-0.122l31.622,0l-0,0.122l52.551,170.969l-33.706,0l-12.884,-44.169l-43.549,-0Z" style="fill:#fff;fill-rule:nonzero;"/><rect x="558.769" y="296.991" width="34.683" height="171.002" style="fill:#fff;"/></g></g><g><path d="M358.425,257.151c-5.517,50.551 -48.341,89.891 -100.36,89.891c-55.763,0 -100.966,-45.203 -100.966,-100.966l201.932,0c49.644,0 89.889,-40.243 89.889,-89.889c0,-49.644 -40.245,-89.889 -89.889,-89.889l0,-11.078c55.763,-0 100.967,45.204 100.967,100.967c0,55.763 -45.204,100.966 -100.967,100.966l-0.606,-0.002Zm-64.936,-11.075c-0,1.568 0.18,3.095 0.518,4.56l0.009,0.047l0.008,0.022l0.015,0.07l0.028,0.112l0.009,0.045l0.008,0.023l0.01,0.047l0.018,0.067l0.013,0.054l0.022,0.083l0.005,0.023l0.019,0.067l0.011,0.045l0.049,0.18l0.032,0.113l0.045,0.157l0.054,0.178l0.035,0.112c0.195,0.632 0.425,1.251 0.68,1.856l0.017,0.042l0.028,0.063l0.008,0.021l0.037,0.084l0.019,0.044l0.037,0.083l0.009,0.022l0.011,0.019l0.007,0.022l0.011,0.02l0.037,0.085l0.057,0.124l0.021,0.043l0.018,0.042l0.011,0.019l0.029,0.063l0.04,0.083l0.009,0.021l0.021,0.042l0.009,0.021l0.021,0.041l0.009,0.021l0.062,0.123l0.042,0.081l0.019,0.042l0.032,0.06c3.353,6.536 10.154,11 17.982,11c11.154,0 20.192,-9.04 20.192,-20.192c0,-11.151 -9.038,-20.19 -20.192,-20.19c-11.151,0 -20.191,9.039 -20.191,20.19Zm1.651,8.009l0.009,0.02l-0.009,-0.02Zm0.065,0.148l0.009,0.019l-0.009,-0.019Zm0.045,0.105l0.011,0.019l0.037,0.085l-0.048,-0.104Zm0.068,0.146l0.009,0.021l-0.009,-0.021Zm0.028,0.063l0.009,0.019l-0.009,-0.019Zm0.03,0.063l0.009,0.019l-0.009,-0.019Zm0.029,0.062l0.009,0.02l-0.009,-0.02Zm0.048,0.103l0.011,0.021l-0.011,-0.021Zm0.021,0.043l0.006,0.013l-0.006,-0.013Zm0.02,0.04l0.01,0.021l-0.01,-0.021Zm0.049,0.104l0.051,0.102" style="fill:#fff;"/><path d="M157.099,536.073c55.763,0 100.966,-45.204 100.966,-100.967c-0,-55.763 -45.203,-100.966 -100.966,-100.966l0,201.933Z" style="fill:#fff;"/><path d="M144.518,246.076c-55.763,0 -100.966,45.205 -100.966,100.968c0,55.763 45.203,100.966 100.966,100.966l0,-201.934Z" style="fill:#fff;"/><path d="M359.031,548.652c0,55.763 -45.203,100.968 -100.966,100.968c-55.763,0 -100.966,-45.205 -100.966,-100.968l201.932,0Z" style="fill:#fff;"/></g></g></svg>