<?xml version="1.0" encoding="UTF-8" standalone="no"?><!DOCTYPE svg PUBLIC "-//W3C//DTD SVG 1.1//EN" "http://www.w3.org/Graphics/SVG/1.1/DTD/svg11.dtd"><svg width="100%" height="100%" viewBox="0 0 1081 704" version="1.1" xmlns="http://www.w3.org/2000/svg" xmlns:xlink="http://www.w3.org/1999/xlink" xml:space="preserve" xmlns:serif="http://www.serif.com/" style="fill-rule:evenodd;clip-rule:evenodd;stroke-linejoin:round;stroke-miterlimit:2;"><rect id="Prancheta1" x="0.919" y="0.594" width="1080" height="703.256" style="fill:none;"/><g><g><g><path d="M462.71,549.266c-7.043,0 -12.483,-2.067 -16.321,-6.201c-3.838,-4.134 -5.757,-9.988 -5.757,-17.562c-0,-7.553 1.954,-13.412 5.864,-17.577c3.909,-4.164 9.416,-6.247 16.52,-6.247c4.063,0 8.82,0.664 14.27,1.991l0,6.032c-6.206,-2.143 -10.993,-3.215 -14.361,-3.215c-4.92,-0 -8.728,1.664 -11.422,4.991c-2.695,3.328 -4.043,8.023 -4.043,14.087c0,5.777 1.44,10.334 4.318,13.672c2.879,3.338 6.808,5.007 11.79,5.007c4.287,0 8.88,-1.317 13.78,-3.95l-0,5.512c-4.471,2.307 -9.35,3.46 -14.638,3.46Z" style="fill:#333;fill-rule:nonzero;"/><path d="M553.554,530.801l-7.717,-19.537l-7.747,19.537l15.464,-0Zm6.798,17.332l-4.93,-12.555l-19.2,-0l-4.992,12.555l-5.971,0l17.975,-45.321l6.369,0l17.7,45.321l-6.951,0Z" style="fill:#333;fill-rule:nonzero;"/><path d="M617.756,548.133l-0,-45.321l8.911,0l12.555,35.063l12.923,-35.063l7.961,0l0,45.321l-6.002,0l0,-36.869l-12.493,33.837l-6.217,0l-12.126,-33.929l-0,36.961l-5.512,0Z" style="fill:#333;fill-rule:nonzero;"/><path d="M738.64,530.801l-7.717,-19.537l-7.747,19.537l15.464,-0Zm6.798,17.332l-4.93,-12.555l-19.2,-0l-4.992,12.555l-5.971,0l17.975,-45.321l6.369,0l17.7,45.321l-6.951,0Z" style="fill:#333;fill-rule:nonzero;"/><path d="M802.842,548.133l-0,-45.321l13.719,0c4.348,0 7.681,0.96 9.998,2.879c2.317,1.919 3.475,4.705 3.475,8.36c0,6.042 -3.052,10.329 -9.156,12.861l15.128,21.221l-7.901,0l-12.892,-19.169l-6.002,-0l0,19.169l-6.369,0Zm6.369,-23.977l2.083,-0c8.084,-0 12.126,-3.175 12.126,-9.524c-0,-4.675 -3.389,-7.012 -10.167,-7.012l-4.042,0l0,16.536Z" style="fill:#333;fill-rule:nonzero;"/><path d="M909.364,530.801l-7.717,-19.537l-7.747,19.537l15.464,-0Zm6.798,17.332l-4.93,-12.555l-19.2,-0l-4.992,12.555l-5.971,0l17.975,-45.321l6.37,0l17.699,45.321l-6.951,0Zm-24.283,-49.118c0.102,-2.388 0.627,-4.18 1.577,-5.374c0.949,-1.194 2.312,-1.791 4.088,-1.791c1.49,-0 2.868,0.388 4.134,1.163l1.837,1.133c1.143,0.715 2.021,1.072 2.634,1.072c0.694,0 1.24,-0.281 1.638,-0.842c0.398,-0.561 0.638,-1.404 0.719,-2.526l3.767,-0c-0.123,2.388 -0.653,4.18 -1.592,5.374c-0.939,1.194 -2.297,1.791 -4.073,1.791c-1.49,0 -2.868,-0.398 -4.134,-1.194l-1.837,-1.133c-1.144,-0.694 -2.021,-1.041 -2.634,-1.041c-0.694,-0 -1.24,0.28 -1.638,0.842c-0.398,0.561 -0.638,1.403 -0.72,2.526l-3.766,0Z" style="fill:#333;fill-rule:nonzero;"/><path d="M991.817,549.266c-6.288,0 -11.346,-2.179 -15.173,-6.538c-3.828,-4.358 -5.742,-10.12 -5.742,-17.286c0,-7.206 1.924,-12.968 5.772,-17.286c3.848,-4.318 8.988,-6.477 15.418,-6.477c6.411,0 11.545,2.154 15.403,6.462c3.859,4.307 5.788,10.054 5.788,17.24c-0,7.329 -1.929,13.142 -5.788,17.439c-3.858,4.297 -9.084,6.446 -15.678,6.446Zm0.092,-4.808c4.634,0 8.217,-1.669 10.748,-5.006c2.532,-3.338 3.797,-8.049 3.797,-14.132c0,-5.9 -1.271,-10.514 -3.812,-13.842c-2.542,-3.327 -6.058,-4.991 -10.55,-4.991c-4.511,-0 -8.033,1.669 -10.564,5.007c-2.532,3.338 -3.797,7.977 -3.797,13.917c-0,5.921 1.255,10.575 3.766,13.964c2.511,3.389 5.982,5.083 10.412,5.083Z" style="fill:#333;fill-rule:nonzero;"/></g><g><path d="M524.647,296.87l-52.55,170.907l-31.51,-0l-52.662,-170.907l34.178,0l34.236,119.834l34.127,-119.834l34.181,0Z" style="fill:#00274d;fill-rule:nonzero;"/><path d="M627.191,296.751l34.182,0l0,136.845l68.362,0l-0,34.182l-102.544,0l-0,-171.027Z" style="fill:#00274d;fill-rule:nonzero;"/><path d="M763.917,296.751l34.182,0l0,136.845l68.362,0l0,34.182l-102.544,0l0,-171.027Z" style="fill:#00274d;fill-rule:nonzero;"/><path d="M969.06,347.68l-12.884,44.286l25.657,0l-12.773,-44.286Zm-21.83,75.867l-12.885,44.17l-33.702,-0l52.553,-170.97l-0,-0.122l31.622,0l-0,0.122l52.551,170.97l-33.706,-0l-12.884,-44.17l-43.549,-0Z" style="fill:#00274d;fill-rule:nonzero;"/><rect x="559.686" y="296.793" width="34.683" height="171.002" style="fill:#00274d;"/></g></g><g><path d="M359.342,256.954c-5.517,50.55 -48.341,89.89 -100.36,89.89c-55.763,0 -100.965,-45.203 -100.965,-100.966l201.931,0c49.645,0 89.89,-40.243 89.89,-89.889c-0,-49.644 -40.245,-89.889 -89.89,-89.889l0,-11.078c55.763,-0 100.968,45.204 100.968,100.967c-0,55.763 -45.205,100.966 -100.968,100.966l-0.606,-0.001Zm-64.936,-11.076c0,1.568 0.18,3.095 0.519,4.56l0.009,0.047l0.007,0.022l0.015,0.07l0.029,0.112l0.009,0.045l0.007,0.023l0.011,0.047l0.018,0.067l0.012,0.054l0.022,0.083l0.005,0.023l0.02,0.067l0.01,0.045l0.05,0.18l0.031,0.113l0.045,0.157l0.054,0.178l0.035,0.112c0.195,0.632 0.425,1.252 0.681,1.856l0.016,0.042l0.029,0.063l0.007,0.021l0.038,0.084l0.018,0.044l0.037,0.083l0.01,0.022l0.01,0.019l0.008,0.022l0.01,0.02l0.038,0.085l0.057,0.124l0.021,0.043l0.018,0.042l0.01,0.019l0.029,0.063l0.04,0.083l0.009,0.021l0.022,0.042l0.009,0.021l0.021,0.041l0.009,0.021l0.061,0.123l0.042,0.081l0.02,0.042l0.032,0.06c3.353,6.536 10.153,11 17.982,11c11.153,0 20.192,-9.04 20.192,-20.192c-0,-11.151 -9.039,-20.19 -20.192,-20.19c-11.152,0 -20.192,9.039 -20.192,20.19Zm1.652,8.009l0.009,0.02l-0.009,-0.02Zm0.064,0.148l0.009,0.019l-0.009,-0.019Zm0.046,0.105l0.01,0.019l0.038,0.085l-0.048,-0.104Zm0.067,0.146l0.009,0.021l-0.009,-0.021Zm0.029,0.063l0.009,0.019l-0.009,-0.019Zm0.03,0.063l0.009,0.019l-0.009,-0.019Zm0.028,0.062l0.009,0.02l-0.009,-0.02Zm0.049,0.103l0.01,0.021l-0.01,-0.021Zm0.02,0.043l0.007,0.013l-0.007,-0.013Zm0.02,0.04l0.011,0.021l-0.011,-0.021Zm0.05,0.104l0.051,0.102" style="fill:#f26556;"/><path d="M158.017,535.875c55.762,0 100.965,-45.204 100.965,-100.967c0,-55.763 -45.203,-100.966 -100.965,-100.966l-0,201.933Z" style="fill:#f26556;"/><path d="M145.436,245.878c-55.763,0 -100.967,45.205 -100.967,100.968c0,55.763 45.204,100.966 100.967,100.966l-0,-201.934Z" style="fill:#f26556;"/><path d="M359.948,548.454c0,55.763 -45.203,100.968 -100.966,100.968c-55.763,0 -100.965,-45.205 -100.965,-100.968l201.931,0Z" style="fill:#f26556;"/></g></g></svg>