<?xml version="1.0" encoding="UTF-8" standalone="no"?><!DOCTYPE svg PUBLIC "-//W3C//DTD SVG 1.1//EN" "http://www.w3.org/Graphics/SVG/1.1/DTD/svg11.dtd"><svg width="100%" height="100%" viewBox="0 0 639 521" version="1.1" xmlns="http://www.w3.org/2000/svg" xmlns:xlink="http://www.w3.org/1999/xlink" xml:space="preserve" xmlns:serif="http://www.serif.com/" style="fill-rule:evenodd;clip-rule:evenodd;stroke-linecap:round;stroke-linejoin:round;stroke-miterlimit:1.5;"><rect id="Prancheta1" x="0.644" y="0.631" width="637.795" height="519.685" style="fill:none;"/><g><path d="M51.704,159.373c-20.266,20.587 -26.049,41.98 -24.037,65.144c1.518,17.463 8.101,33.289 18.19,46.179c-22.365,18.954 -35.51,47.964 -32.797,79.195c4.462,51.366 50.147,89.415 101.956,84.914c8.216,-0.714 16.097,-2.455 23.527,-5.087c15.703,38.969 55.761,64.885 100.104,61.032c15.694,-1.363 30.216,-6.307 42.811,-13.944c19.734,24.171 53.499,34.489 84.642,23.25c13.619,-4.914 24.958,-13.309 33.366,-23.802c17.216,13.077 39.227,20.061 62.536,18.036c49.524,-4.302 86.269,-47.656 82.012,-96.755l-0,-0c49.537,-4.304 86.292,-47.674 82.025,-96.789c-3.079,-35.442 -26.683,-64.253 -58.202,-75.932c13.588,-20.028 20.631,-44.597 18.384,-70.467c-5.227,-60.163 -58.735,-104.727 -119.415,-99.456c-1.22,0.106 -2.433,0.232 -3.647,0.377c-11.227,-24.878 -37.449,-41.178 -66.377,-38.664c-18.115,1.573 -37.479,11.316 -48.111,26.853" style="fill:none;stroke:#ef5b4a;stroke-width:17.84px;"/><path d="M376.875,493.819c0.153,-27.122 5.67,-49.244 5.67,-49.244c-0,0 70.297,-2.87 90.976,47.389" style="fill:none;stroke:#ef5b4a;stroke-width:17.84px;"/><path d="M245.373,414.662l24.046,-41.766" style="fill:none;stroke:#ef5b4a;stroke-width:17.84px;stroke-linejoin:bevel;"/><path d="M253.882,487.813c-13.542,-64.589 -8.103,-73.151 -8.103,-73.151c-0,-0 -79.361,3.711 -104.245,20.938" style="fill:none;stroke:#ef5b4a;stroke-width:17.84px;"/><path d="M419.526,130.664c-0,0 84.856,21.28 59.003,125.192c-3.481,13.989 23.889,29.956 30.687,36.533c3.489,3.374 3.261,10.063 1.589,13.674c-1.822,3.937 -12.976,8.027 -12.178,12.719c0.798,4.692 2.947,4.601 16.965,15.433c2.817,2.177 2.85,6.449 0.6,10.134c-1.549,2.537 -7.543,5.665 -7.846,8.034c-0.302,2.37 5.373,3.192 6.032,6.184c1.126,5.112 1.032,8.276 -2.112,11.82c-2.796,3.151 -8.194,0.119 -9.332,3.179c-1.686,4.536 -1.846,12.953 -0.783,24.032c0.991,10.332 -5.387,16.812 -15.704,17.468c-42.734,2.717 -75.153,-28.263 -90.69,-10.938c-3.351,3.736 -19.27,45.596 -18.875,91.291" style="fill:none;stroke:#ef5b4a;stroke-width:17.84px;stroke-linejoin:bevel;"/><path d="M262.698,47.578c0.532,-1.656 17.13,-14.497 26.372,-16.215c10.683,-1.986 36.644,3.81 49.003,7.592c28.235,8.639 31.397,43.678 31.397,43.678c21.439,-10.116 54.695,41.473 49.516,48.238c-42.949,56.106 -48.853,107.517 -152.422,244.644c-7.238,9.584 -39.781,-2.353 -38.756,-13.456c-1.023,1.678 -17.88,5.302 -18.741,6.635c-4.522,7.006 -26.672,-3.024 -25.343,-11.101c0.262,-1.59 0.566,-3.322 0.91,-5.18c-3.948,-1.012 -30.741,-8.124 -40.451,-17.115c-13.073,-12.103 -33.096,-34.451 -37.495,-55.381c-2.113,-10.06 -4.694,-23.887 -6.763,-39.185c-15.954,-7.402 -35.39,-19.166 -41.226,-34.369c-2.361,-6.152 -1.959,-14.781 0.369,-24.566c-8.839,-4.373 -4.781,-13.938 -7.645,-23.45c-4.583,-15.219 11.118,-83.033 25.714,-90.369c14.062,-7.067 36.747,2.042 36.747,2.042c2.57,-2.172 5.064,-3.927 7.428,-5.181c14.397,-7.641 35.349,-7.163 50.264,-5.448c12.646,-6.834 24.669,-12.221 33.44,-15.947c15.318,-6.509 48.914,1.783 57.682,4.134Z" style="fill:none;stroke:#ef5b4a;stroke-width:17.84px;"/></g></svg>