<?xml version="1.0" encoding="UTF-8" standalone="no"?><!DOCTYPE svg PUBLIC "-//W3C//DTD SVG 1.1//EN" "http://www.w3.org/Graphics/SVG/1.1/DTD/svg11.dtd"><svg width="100%" height="100%" viewBox="0 0 639 521" version="1.1" xmlns="http://www.w3.org/2000/svg" xmlns:xlink="http://www.w3.org/1999/xlink" xml:space="preserve" xmlns:serif="http://www.serif.com/" style="fill-rule:evenodd;clip-rule:evenodd;stroke-linecap:round;stroke-linejoin:round;stroke-miterlimit:1.5;"><rect id="Prancheta1" x="0.426" y="0.323" width="637.795" height="519.685" style="fill:none;"/><g><path d="M51.486,159.065c-20.266,20.587 -26.049,41.981 -24.037,65.145c1.517,17.462 8.101,33.288 18.19,46.179c-22.365,18.953 -35.511,47.963 -32.797,79.194c4.462,51.366 50.147,89.415 101.956,84.914c8.216,-0.714 16.097,-2.455 23.526,-5.087c15.704,38.969 55.762,64.885 100.105,61.033c15.694,-1.364 30.216,-6.308 42.811,-13.945c19.734,24.172 53.499,34.489 84.642,23.25c13.619,-4.914 24.958,-13.309 33.366,-23.802c17.215,13.078 39.227,20.061 62.536,18.036c49.524,-4.302 86.269,-47.656 82.011,-96.755l0,-0c49.538,-4.304 86.293,-47.673 82.026,-96.789c-3.08,-35.442 -26.683,-64.253 -58.203,-75.932c13.589,-20.028 20.632,-44.597 18.385,-70.467c-5.227,-60.162 -58.735,-104.727 -119.416,-99.455c-1.219,0.106 -2.433,0.231 -3.646,0.376c-11.227,-24.878 -37.449,-41.177 -66.378,-38.664c-18.114,1.574 -37.478,11.316 -48.11,26.853" style="fill:none;stroke:#fff;stroke-width:17.84px;"/><path d="M376.657,493.512c0.153,-27.123 5.67,-49.245 5.67,-49.245c-0,0 70.297,-2.87 90.976,47.39" style="fill:none;stroke:#fff;stroke-width:17.84px;"/><path d="M245.155,414.354l24.046,-41.766" style="fill:none;stroke:#fff;stroke-width:17.84px;stroke-linejoin:bevel;"/><path d="M253.664,487.505c-13.542,-64.588 -8.104,-73.151 -8.104,-73.151c0,0 -79.36,3.711 -104.244,20.938" style="fill:none;stroke:#fff;stroke-width:17.84px;"/><path d="M419.308,130.356c-0,0 84.856,21.28 59.003,125.193c-3.481,13.988 23.889,29.956 30.687,36.532c3.489,3.375 3.261,10.063 1.589,13.674c-1.822,3.937 -12.976,8.027 -12.178,12.719c0.798,4.692 2.947,4.601 16.965,15.433c2.817,2.177 2.85,6.449 0.6,10.134c-1.549,2.537 -7.543,5.665 -7.846,8.035c-0.302,2.369 5.373,3.191 6.032,6.184c1.126,5.111 1.032,8.275 -2.112,11.819c-2.796,3.152 -8.194,0.119 -9.332,3.18c-1.686,4.535 -1.846,12.953 -0.783,24.031c0.99,10.332 -5.387,16.812 -15.704,17.468c-42.735,2.718 -75.153,-28.263 -90.691,-10.938c-3.35,3.736 -19.269,45.596 -18.874,91.291" style="fill:none;stroke:#fff;stroke-width:17.84px;stroke-linejoin:bevel;"/><path d="M262.48,47.27c0.531,-1.656 17.13,-14.497 26.371,-16.215c10.683,-1.986 36.644,3.811 49.004,7.592c28.235,8.639 31.397,43.678 31.397,43.678c21.439,-10.115 54.695,41.473 49.516,48.238c-42.949,56.106 -48.853,107.518 -152.422,244.644c-7.238,9.584 -39.781,-2.353 -38.756,-13.456c-1.023,1.678 -17.88,5.303 -18.741,6.636c-4.522,7.005 -26.672,-3.024 -25.343,-11.101c0.261,-1.59 0.566,-3.323 0.91,-5.181c-3.948,-1.012 -30.741,-8.124 -40.452,-17.115c-13.072,-12.103 -33.095,-34.45 -37.494,-55.381c-2.114,-10.06 -4.695,-23.887 -6.763,-39.184c-15.954,-7.403 -35.39,-19.167 -41.226,-34.369c-2.362,-6.152 -1.959,-14.782 0.369,-24.567c-8.839,-4.373 -4.781,-13.938 -7.645,-23.45c-4.583,-15.219 11.118,-83.032 25.714,-90.368c14.062,-7.068 36.747,2.042 36.747,2.042c2.57,-2.172 5.064,-3.928 7.428,-5.182c14.397,-7.641 35.349,-7.162 50.264,-5.448c12.645,-6.834 24.669,-12.22 33.44,-15.947c15.317,-6.509 48.914,1.784 57.682,4.134Z" style="fill:none;stroke:#fff;stroke-width:17.84px;"/></g></svg>