<?xml version="1.0" encoding="UTF-8" standalone="no"?><!DOCTYPE svg PUBLIC "-//W3C//DTD SVG 1.1//EN" "http://www.w3.org/Graphics/SVG/1.1/DTD/svg11.dtd"><svg width="100%" height="100%" viewBox="0 0 639 520" version="1.1" xmlns="http://www.w3.org/2000/svg" xmlns:xlink="http://www.w3.org/1999/xlink" xml:space="preserve" xmlns:serif="http://www.serif.com/" style="fill-rule:evenodd;clip-rule:evenodd;stroke-linecap:round;stroke-linejoin:round;stroke-miterlimit:1.5;"><rect id="Prancheta1" x="0.362" y="0.022" width="637.795" height="519.685" style="fill:none;"/><g><path d="M51.422,158.764c-20.265,20.587 -26.049,41.98 -24.036,65.144c1.517,17.463 8.1,33.289 18.19,46.179c-22.365,18.954 -35.511,47.964 -32.798,79.194c4.463,51.367 50.148,89.416 101.956,84.915c8.217,-0.714 16.097,-2.456 23.527,-5.087c15.703,38.969 55.762,64.885 100.104,61.032c15.694,-1.363 30.216,-6.307 42.812,-13.944c19.733,24.171 53.498,34.489 84.641,23.25c13.619,-4.915 24.959,-13.31 33.367,-23.802c17.215,13.077 39.227,20.061 62.535,18.036c49.524,-4.302 86.269,-47.656 82.012,-96.755l-0,-0c49.538,-4.304 86.292,-47.674 82.025,-96.789c-3.079,-35.442 -26.682,-64.253 -58.202,-75.932c13.588,-20.028 20.632,-44.597 18.384,-70.467c-5.227,-60.163 -58.735,-104.727 -119.415,-99.456c-1.22,0.106 -2.433,0.232 -3.647,0.377c-11.227,-24.878 -37.448,-41.178 -66.377,-38.664c-18.115,1.573 -37.479,11.315 -48.111,26.853" style="fill:none;stroke:#00274d;stroke-width:17.84px;"/><path d="M376.594,493.21c0.152,-27.123 5.669,-49.244 5.669,-49.244c-0,-0 70.297,-2.87 90.977,47.389" style="fill:none;stroke:#00274d;stroke-width:17.84px;"/><path d="M245.091,414.053l24.047,-41.766" style="fill:none;stroke:#00274d;stroke-width:17.84px;stroke-linejoin:bevel;"/><path d="M253.601,487.204c-13.542,-64.589 -8.104,-73.151 -8.104,-73.151c-0,-0 -79.361,3.711 -104.244,20.938" style="fill:none;stroke:#00274d;stroke-width:17.84px;"/><path d="M419.244,130.055c0,-0 84.856,21.28 59.003,125.192c-3.48,13.989 23.889,29.956 30.688,36.533c3.488,3.374 3.26,10.063 1.589,13.674c-1.822,3.936 -12.976,8.027 -12.178,12.718c0.797,4.692 2.947,4.602 16.964,15.434c2.818,2.177 2.85,6.449 0.601,10.134c-1.549,2.537 -7.544,5.665 -7.846,8.034c-0.303,2.37 5.372,3.192 6.031,6.184c1.126,5.112 1.032,8.276 -2.112,11.819c-2.796,3.152 -8.194,0.12 -9.332,3.18c-1.686,4.536 -1.845,12.953 -0.783,24.032c0.991,10.332 -5.386,16.812 -15.703,17.468c-42.735,2.717 -75.154,-28.264 -90.691,-10.939c-3.351,3.736 -19.27,45.597 -18.874,91.292" style="fill:none;stroke:#00274d;stroke-width:17.84px;stroke-linejoin:bevel;"/><path d="M262.417,46.969c0.531,-1.656 17.129,-14.498 26.371,-16.215c10.683,-1.986 36.644,3.81 49.003,7.592c28.236,8.639 31.398,43.677 31.398,43.677c21.438,-10.115 54.694,41.474 49.516,48.239c-42.95,56.106 -48.853,107.517 -152.422,244.644c-7.239,9.583 -39.782,-2.354 -38.757,-13.457c-1.022,1.678 -17.88,5.303 -18.741,6.636c-4.522,7.005 -26.672,-3.024 -25.343,-11.101c0.262,-1.59 0.566,-3.322 0.91,-5.181c-3.948,-1.012 -30.741,-8.123 -40.451,-17.114c-13.072,-12.104 -33.096,-34.451 -37.494,-55.381c-2.114,-10.06 -4.695,-23.887 -6.763,-39.185c-15.954,-7.402 -35.391,-19.166 -41.226,-34.369c-2.362,-6.152 -1.96,-14.781 0.368,-24.566c-8.839,-4.373 -4.78,-13.938 -7.645,-23.45c-4.582,-15.219 11.118,-83.033 25.715,-90.369c14.061,-7.067 36.746,2.042 36.746,2.042c2.57,-2.172 5.065,-3.927 7.429,-5.182c14.396,-7.641 35.348,-7.162 50.263,-5.447c12.646,-6.834 24.669,-12.221 33.44,-15.947c15.318,-6.509 48.915,1.783 57.683,4.134Z" style="fill:none;stroke:#00274d;stroke-width:17.84px;"/></g></svg>